# File created by Blade
# Date/Time:  Wed Jan 28 15:39:58 2015
#---------------------------------------------------------
:version 1.10
:name HOM
:units
  mass 1.0
  length 1.000000
  angle deg
:documentation
     Acclaim Skeleton File
:root
   axis xyz
   order TX TY TZ RX RY RZ
   position 0.000000 0.000000 0.000000
   orientation 0 0 0
:bonedata
   begin
      id 1
      name Spine_dum
      direction 0.000000 1.000000 0.000000
      length 6.864287
      axis 0.0 0.0 0.0 xyz
   end
   begin
      id 2
      name LeftUpLeg_dum
      direction 1.000000 0.000000 0.000000
      length 4.117376
      axis 0.0 0.0 0.0 xyz
   end
   begin
      id 3
      name RightUpLeg_dum
      direction -1.000000 0.000000 0.000000
      length 4.117376
      axis 0.0 0.0 0.0 xyz
   end
   begin
      id 4
      name Spine
      direction 0.000000 1.000000 0.000000
      length 0.000000
      axis 0.0 0.0 0.0 xyz
      dof rx ry rz
   end
   begin
      id 5
      name Spine_dum1
      direction 0.000000 1.000000 0.000000
      length 15.393827
      axis 0.0 0.0 0.0 xyz
   end
   begin
      id 6
      name Spine_dum2
      direction 0.000000 1.000000 0.000000
      length 9.314826
      axis 0.0 0.0 0.0 xyz
   end
   begin
      id 7
      name Spine_dum3
      direction 0.000000 1.000000 0.000000
      length 9.314826
      axis 0.0 0.0 0.0 xyz
   end
   begin
      id 8
      name Head
      direction 0.000000 1.000000 0.000000
      length 4.527550
      axis 0.0 0.0 0.0 xyz
      dof rx ry rz
   end
   begin
      id 9
      name LeftShoulder
      direction 1.000000 0.000000 0.000000
      length 8.275398
      axis 0.0 0.0 -90.0 xyz
      dof rx ry rz
   end
   begin
      id 10
      name LeftArm
      direction 1.000000 0.000000 0.000000
      length 12.002200
      axis 0.0 0.0 -90.0 xyz
      dof rx ry rz
   end
   begin
      id 11
      name LeftForeArm
      direction 1.000000 0.000000 0.000000
      length 10.144633
      axis 0.0 0.0 -90.0 xyz
      dof ry rz rx
   end
   begin
      id 12
      name LeftHand
      direction 0.000000 0.000000 0.000000
      length 0.000000
      axis 0.0 0.0 -90.0 xyz
      dof rx ry rz
   end
   begin
      id 13
      name LeftHand_dum1
      direction 0.000000 0.000000 0.000000
      length 0.000000
      axis 0.0 0.0 -90.0 xyz
   end
   begin
      id 14
      name LeftHand_dum2
      direction 1.000000 0.000000 0.000000
      length 3.937000
      axis 0.0 0.0 -90.0 xyz
   end
   begin
      id 15
      name LeftHandThumb1
      direction 0.000000 0.000000 1.000000
      length 3.937000
      axis 0.0 0.0 -90.0 xyz
      dof rx rz ry
   end
   begin
      id 16
      name RightShoulder
      direction -1.000000 0.000000 0.000000
      length 8.275398
      axis 0.0 0.0 90.0 xyz
      dof rx ry rz
   end
   begin
      id 17
      name RightArm
      direction -1.000000 0.000000 0.000000
      length 12.002200
      axis 0.0 0.0 90.0 xyz
      dof rx ry rz
   end
   begin
      id 18
      name RightForeArm
      direction -1.000000 0.000000 0.000000
      length 10.144633
      axis 0.0 0.0 90.0 xyz
      dof ry rz rx
   end
   begin
      id 19
      name RightHand
      direction 0.000000 0.000000 0.000000
      length 0.000000
      axis 0.0 0.0 90.0 xyz
      dof rx ry rz
   end
   begin
      id 20
      name RightHand_dum1
      direction 0.000000 0.000000 0.000000
      length 0.000000
      axis 0.0 0.0 90.0 xyz
   end
   begin
      id 21
      name RightHand_dum2
      direction -1.000000 0.000000 0.000000
      length 3.937000
      axis 0.0 0.0 90.0 xyz
   end
   begin
      id 22
      name RightHandThumb1
      direction 0.000000 0.000000 1.000000
      length 3.937000
      axis 0.0 0.0 90.0 xyz
      dof rx rz ry
   end
   begin
      id 23
      name LeftUpLeg
      direction 0.000000 -1.000000 0.000000
      length 19.394322
      axis 0.0 0.0 0.0 xyz
      dof rx ry rz
   end
   begin
      id 24
      name LeftLeg
      direction 0.000000 -1.000000 0.000000
      length 17.609563
      axis 0.0 0.0 0.0 xyz
      dof rx ry rz
   end
   begin
      id 25
      name LeftFoot
      direction 0.000000 -0.258819 0.965926
      length 6.085393
      axis 15.0 0.0 0.0 xyz
      dof rx ry rz
   end
   begin
      id 26
      name LeftToeBase
      direction 0.000000 0.000000 1.000000
      length 2.952750
      axis 0.0 0.0 0.0 xyz
      dof rx ry rz
   end
   begin
      id 27
      name RightUpLeg
      direction 0.000000 -1.000000 0.000000
      length 19.394322
      axis 0.0 0.0 0.0 xyz
      dof rx ry rz
   end
   begin
      id 28
      name RightLeg
      direction 0.000000 -1.000000 0.000000
      length 17.609563
      axis 0.0 0.0 0.0 xyz
      dof rx ry rz
   end
   begin
      id 29
      name RightFoot
      direction 0.000000 -0.258819 0.965926
      length 6.085393
      axis 15.0 0.0 0.0 xyz
      dof rx ry rz
   end
   begin
      id 30
      name RightToeBase
      direction 0.000000 0.000000 1.000000
      length 2.952750
      axis 0.0 0.0 0.0 xyz
      dof rx ry rz
   end
:hierarchy
   begin
      root Spine_dum LeftUpLeg_dum RightUpLeg_dum
      Spine_dum Spine
      LeftUpLeg_dum LeftUpLeg
      RightUpLeg_dum RightUpLeg
      Spine Spine_dum1 Spine_dum2 Spine_dum3
      Spine_dum1 Head
      Spine_dum2 LeftShoulder
      Spine_dum3 RightShoulder
      LeftShoulder LeftArm
      LeftArm LeftForeArm
      LeftForeArm LeftHand
      LeftHand LeftHand_dum1 LeftHand_dum2
      LeftHand_dum1 LeftHandThumb1
      RightShoulder RightArm
      RightArm RightForeArm
      RightForeArm RightHand
      RightHand RightHand_dum1 RightHand_dum2
      RightHand_dum1 RightHandThumb1
      LeftUpLeg LeftLeg
      LeftLeg LeftFoot
      LeftFoot LeftToeBase
      RightUpLeg RightLeg
      RightLeg RightFoot
      RightFoot RightToeBase
   end

# File created by Blade
# Date/Time:  Wed Jan 28 15:40:07 2015
# Frame Rate: 120.000 fps
#------------------------------------------------------
:FULLY-SPECIFIED
:DEGREES
1327
root -8.165678 40.593115 -15.583975 20.849292 -47.505089 48.603590
Spine 13.536062 1.979545 24.393196
Head -41.562083 -33.549359 4.610178
LeftShoulder -20.374556 13.923137 -9.418458
LeftArm 5.466597 16.025579 -90.256472
LeftForeArm -15.327868 -0.000000 7.011290
LeftHand -2.233784 -0.000000 -10.026698
LeftHandThumb1 -26.253704 0.000000 33.147579
RightShoulder -17.644463 5.963055 -47.183597
RightArm 40.449134 85.189086 62.855055
RightForeArm 5.212047 -0.000000 100.306570
RightHand -14.089591 0.000000 -40.856636
RightHandThumb1 -24.326973 -0.000000 -32.862282
LeftUpLeg -14.624674 1.629562 19.233836
LeftLeg 151.441384 -0.000000 -0.000000
LeftFoot 27.554747 -0.829723 -23.230400
LeftToeBase 3.839668 -0.000000 -0.000000
RightUpLeg -60.396905 -12.820531 -20.330245
RightLeg 19.878824 -0.000000 -0.000000
RightFoot -25.049168 -20.466461 13.807473
RightToeBase 8.792208 -0.000000 -0.000000
1328
root -8.170105 40.596177 -15.578751 20.861775 -47.480341 48.625990
Spine 13.518325 1.989528 24.404493
Head -41.604170 -33.593390 4.615744
LeftShoulder -20.395337 13.958997 -9.441622
LeftArm 5.487276 16.002571 -90.246136
LeftForeArm -15.332685 -0.000000 7.015915
LeftHand -2.298209 0.000000 -10.083789
LeftHandThumb1 -26.253704 0.000000 33.147579
RightShoulder -17.645541 5.982550 -47.172888
RightArm 41.092482 85.275735 63.517414
RightForeArm 5.236874 -0.000000 100.319302
RightHand -14.052448 -0.000000 -40.901379
RightHandThumb1 -24.326973 -0.000000 -32.862282
LeftUpLeg -14.590509 1.667312 19.228882
LeftLeg 151.431742 -0.000000 -0.000000
LeftFoot 27.542921 -0.829062 -23.222802
LeftToeBase 3.859316 -0.000000 -0.000000
RightUpLeg -60.409279 -12.882059 -20.312223
RightLeg 19.881475 -0.000000 -0.000000
RightFoot -25.057552 -20.398922 13.845062
RightToeBase 8.784387 -0.000000 -0.000000
1329
root -8.175148 40.598305 -15.575550 20.876784 -47.445077 48.642265
Spine 13.499859 1.996713 24.414356
Head -41.638542 -33.634064 4.629904
LeftShoulder -20.393832 13.983466 -9.444720
LeftArm 5.491503 15.977869 -90.256589
LeftForeArm -15.293721 -0.000000 6.991752
LeftHand -2.210870 0.000000 -10.083117
LeftHandThumb1 -26.253704 0.000000 33.147579
RightShoulder -17.646346 6.011598 -47.155227
RightArm 41.911166 85.369967 64.364106
RightForeArm 5.228833 -0.000000 100.320629
RightHand -13.962176 -0.000000 -40.882783
RightHandThumb1 -24.326973 -0.000000 -32.862282
LeftUpLeg -14.556043 1.690893 19.233451
LeftLeg 151.423642 -0.000000 -0.000000
LeftFoot 27.562766 -0.842289 -23.209374
LeftToeBase 3.683285 -0.000000 -0.000000
RightUpLeg -60.413468 -12.930192 -20.304873
RightLeg 19.886646 -0.000000 -0.000000
RightFoot -25.061610 -20.390122 13.846516
RightToeBase 8.799437 -0.000000 -0.000000
1330
root -8.180958 40.599440 -15.571474 20.929931 -47.403848 48.636255
Spine 13.458236 2.060297 24.454427
Head -41.686784 -33.703002 4.642770
LeftShoulder -20.358611 14.006304 -9.451263
LeftArm 5.481298 15.990381 -90.254840
LeftForeArm -15.282203 -0.000000 6.970478
LeftHand -2.169049 0.000000 -10.076237
LeftHandThumb1 -26.253704 0.000000 33.147579
RightShoulder -17.684331 6.013310 -47.128407
RightArm 42.929286 85.469460 65.392130
RightForeArm 5.254534 0.000000 100.310867
RightHand -13.882179 0.000000 -40.877193
RightHandThumb1 -24.326973 -0.000000 -32.862282
LeftUpLeg -14.534329 1.717372 19.256106
LeftLeg 151.419060 -0.000000 -0.000000
LeftFoot 27.552481 -0.848558 -23.224205
LeftToeBase 3.684259 -0.000000 -0.000000
RightUpLeg -60.433064 -12.982367 -20.285431
RightLeg 19.884572 -0.000000 -0.000000
RightFoot -25.129705 -20.407264 13.936575
RightToeBase 9.006199 -0.000000 -0.000000
1331
root -8.186119 40.599739 -15.568558 20.949524 -47.359571 48.638991
Spine 13.441573 2.053356 24.466928
Head -41.677956 -33.686104 4.623400
LeftShoulder -20.375365 14.029645 -9.434670
LeftArm 5.483398 15.995960 -90.284099
LeftForeArm -15.315801 -0.000000 6.941429
LeftHand -2.171915 -0.000000 -10.109849
LeftHandThumb1 -26.253704 0.000000 33.147579
RightShoulder -17.675723 6.032460 -47.100181
RightArm 44.498723 85.591323 67.013824
RightForeArm 5.214662 -0.000000 100.336320
RightHand -13.932320 -0.000000 -40.827055
RightHandThumb1 -24.326973 -0.000000 -32.862282
LeftUpLeg -14.500046 1.726348 19.270598
LeftLeg 151.407811 -0.000000 -0.000000
LeftFoot 27.573900 -0.846560 -23.270542
LeftToeBase 3.652514 -0.000000 -0.000000
RightUpLeg -60.425620 -13.015613 -20.283819
RightLeg 19.898611 -0.000000 -0.000000
RightFoot -25.113779 -20.374383 13.884744
RightToeBase 8.862589 -0.000000 -0.000000
1332
root -8.191841 40.599785 -15.567475 20.977022 -47.285266 48.618505
Spine 13.420651 2.007560 24.512683
Head -41.660100 -33.716921 4.594257
LeftShoulder -20.394767 14.074830 -9.428615
LeftArm 5.507829 15.968496 -90.320150
LeftForeArm -15.320896 -0.000000 6.911592
LeftHand -2.186102 -0.000000 -10.156611
LeftHandThumb1 -26.253704 0.000000 33.147579
RightShoulder -17.653275 6.057312 -47.072146
RightArm 46.880904 85.694234 69.429937
RightForeArm 5.157067 -0.000000 100.341221
RightHand -13.839656 -0.000000 -40.864580
RightHandThumb1 -24.326973 -0.000000 -32.862282
LeftUpLeg -14.471591 1.697574 19.316836
LeftLeg 151.407785 -0.000000 -0.000000
LeftFoot 27.572913 -0.851707 -23.365161
LeftToeBase 3.734036 -0.000000 -0.000000
RightUpLeg -60.389037 -13.046755 -20.285480
RightLeg 19.904122 -0.000000 -0.000000
RightFoot -25.164765 -20.375904 13.933238
RightToeBase 8.976787 -0.000000 -0.000000
